<svg width="490" height="240" viewBox="0 0 490 240" fill="none" xmlns="http://www.w3.org/2000/svg">
<g clip-path="url(#clip0_101_266)">
<path d="M426.001 132.427C415.26 108.652 394.243 88.3704 368.852 85.0646C362.138 84.1904 355.129 84.5413 348.9 87.2487C340.724 90.8029 334.698 97.9769 328.608 104.596C315.713 118.603 301.284 131.043 285.605 141.669C277.867 146.912 269.566 151.803 260.378 153.145C241.957 155.835 223.735 142.979 215.334 125.988C210.086 115.375 207.66 102.913 203.418 91.8736C198.534 91.8638 192.711 91.8658 186.448 91.8952C169.137 91.977 155.046 92.2382 155.046 92.2382C155.046 92.2382 171.795 69.5351 186.385 77.9465C191.048 80.6343 195.932 83.033 200.419 85.0519C197.87 80.033 194.654 75.5174 190.229 71.8868C181.505 64.7275 169.689 62.7193 158.519 63.2525C146.786 63.8121 134.951 67.0257 125.419 74.0444C108.44 86.5475 101.428 108.555 95.4265 129.061L109.932 136.503C116.154 130.998 125.253 125.553 133.64 130.388C148.227 138.8 164.988 144.387 164.988 144.387C164.988 144.387 151.011 144.257 133.7 144.338C130.792 144.351 127.979 144.37 125.305 144.392L286.356 227.011C339.476 227.776 379.527 224.837 430.003 227.011C432.637 227.124 438.556 213.003 438.575 209.287C438.716 183.096 436.741 156.202 426.001 132.427ZM374.421 139.553C357.11 139.635 343.019 139.896 343.019 139.896C343.019 139.896 359.768 117.193 374.358 125.604C388.948 134.016 405.709 139.6 405.709 139.6C405.709 139.6 391.732 139.471 374.421 139.551L374.421 139.553Z" fill="#F2F2F2"/>
<path d="M490 240H24.5417V239.02H489.534L490 240Z" fill="#CCCCCC"/>
<path d="M186.523 92.2387C186.523 92.2387 189.422 70.4814 194.255 76.4137C199.088 82.346 194.255 91.2493 194.255 91.2493L190.387 96.1947L186.521 93.2275L186.523 92.2387Z" fill="#FFB9B9"/>
<path d="M174.924 99.1613C174.924 99.1613 184.589 88.2826 186.522 90.2599C188.455 92.2372 194.255 93.227 193.288 97.183C192.321 101.139 172.024 113.998 172.024 113.998L174.924 99.1613Z" fill="#2F55FF"/>
<path opacity="0.1" d="M174.924 99.1613C174.924 99.1613 184.589 88.2826 186.522 90.2599C188.455 92.2372 194.255 93.227 193.288 97.183C192.321 101.139 172.024 113.998 172.024 113.998L174.924 99.1613Z" fill="black"/>
<path d="M119.833 98.1724V106.085C119.833 106.085 118.866 123.888 124.666 122.899C130.465 121.91 127.565 107.074 127.565 107.074L126.599 98.1724H119.833Z" fill="#FFB9B9"/>
<path d="M122.732 155.537C122.732 155.537 114.034 169.384 111.134 170.373C108.235 171.362 92.7702 180.263 90.8375 189.164L77.3062 206.967L84.0716 215.869C84.0716 215.869 115 182.242 123.699 179.276C132.397 176.309 141.096 161.473 141.096 161.473L122.732 155.537Z" fill="#FFB9B9"/>
<path d="M191.355 132.789C191.355 132.789 209.718 135.756 206.819 147.625C203.92 159.493 175.891 184.22 175.891 184.22L174.924 190.154L164.293 192.132L159.461 187.187L160.427 184.22C160.427 184.22 172.025 173.341 172.992 169.384C173.958 165.427 184.59 149.603 189.422 148.614L182.657 144.658L191.355 132.789Z" fill="#FFB9B9"/>
<path d="M80.2053 206.968C80.2053 206.968 84.0712 201.033 78.2721 202.022C72.4731 203.011 68.6072 204.001 68.6072 207.957C68.6072 211.913 73.4399 239.606 79.238 237.628C85.0361 235.65 80.2044 226.749 80.2044 226.749C80.2044 226.749 83.1039 218.837 85.0371 217.848C86.9703 216.859 86.9703 211.914 85.0371 211.914C83.1039 211.914 79.239 208.946 80.2053 206.968Z" fill="#090814"/>
<path d="M162.359 185.208C162.359 185.208 162.359 180.263 158.493 185.208C154.627 190.154 152.694 194.11 156.56 197.077C160.426 200.044 173.957 206.967 173.957 206.967C173.957 206.967 188.455 209.934 186.522 203.011C186.522 203.011 176.857 198.066 176.857 194.11C176.857 190.154 176.857 183.231 173.957 185.208C171.058 187.186 162.359 188.177 162.359 185.208Z" fill="#090814"/>
<path d="M143.996 111.03C143.996 111.03 130.464 113.008 131.431 132.787C131.431 132.787 114.034 150.59 118.867 156.524C123.699 162.458 134.331 173.338 138.197 170.371C142.063 167.404 153.661 144.658 153.661 144.658C153.661 144.658 180.723 154.548 185.556 149.603C190.388 144.659 195.22 132.79 195.22 132.79L171.058 119.931L143.996 111.03Z" fill="#090814"/>
<path d="M181.689 54.6544C188.095 54.6544 193.288 49.3407 193.288 42.7859C193.288 36.2311 188.095 30.9174 181.689 30.9174C175.284 30.9174 170.091 36.2311 170.091 42.7859C170.091 49.3407 175.284 54.6544 181.689 54.6544Z" fill="#FFB9B9"/>
<path d="M174.837 44.2448C174.837 44.2448 168.071 55.1234 166.138 56.1132C164.205 57.1031 179.669 66.9919 179.669 66.9919C179.669 66.9919 179.669 54.1345 184.502 51.1669L174.837 44.2448Z" fill="#FFB9B9"/>
<path d="M172.025 54.6545C172.025 54.6545 156.56 49.7091 153.661 57.6216C150.761 65.5341 143.996 80.3697 144.962 90.2599C145.928 100.15 147.861 98.1724 144.962 101.139C142.062 104.105 140.129 102.127 141.096 106.084C142.063 110.04 143.029 110.04 142.062 112.018C141.096 113.996 153.661 120.92 164.292 121.908L174.923 122.897C174.923 122.897 174.923 105.095 176.856 101.14C178.79 97.1855 182.655 89.2716 182.655 86.3044V78.4537C182.655 73.2284 181.323 68.0936 178.79 63.5568C178.79 63.5568 172.991 54.6545 172.025 54.6545Z" fill="#2F55FF"/>
<path d="M160.427 58.6109C160.427 58.6109 124.665 61.578 120.799 71.4683C116.933 81.3585 115 101.14 118.866 101.14C122.732 101.14 127.565 103.118 128.531 101.14C129.498 99.1613 133.364 79.3822 134.33 79.3822C135.297 79.3822 164.292 76.4151 164.292 76.4151C164.292 76.4151 176.856 60.5887 160.427 58.6109Z" fill="#2F55FF"/>
<path d="M182.158 39.8433C182.158 39.8433 185.236 34.3702 189.083 39.1239C192.93 43.8777 199.187 35.1415 198.229 33.2774C197.271 31.4133 193.875 33.3612 188.061 31.4153C182.246 29.4694 171.046 25.5075 169.17 38.4335C167.293 51.3595 171.761 50.0045 171.761 50.0045C171.761 50.0045 173.809 38.5506 175.66 41.8407L177.51 45.1307L179.116 45.535L182.158 39.8433Z" fill="#090814"/>
<g clip-path="url(#clip1_101_266)">
<path d="M375.384 236.375C372.886 236.373 370.43 237.022 368.247 238.26H382.502C380.325 237.022 377.875 236.373 375.384 236.375Z" fill="#E6E6E6"/>
<path d="M403.047 234.49C398.876 234.485 394.805 235.802 391.397 238.26H414.681C411.277 235.805 407.213 234.488 403.047 234.49Z" fill="#E6E6E6"/>
<path d="M335.996 108.312C335.996 108.312 320.962 103.525 323.269 111.401C325.577 119.278 338.241 115.299 338.241 115.299L335.996 108.312Z" fill="#FFB8B8"/>
<path d="M393.465 78.7495C393.465 78.7495 385.76 67.9865 378.275 79.1599C370.775 90.3552 363.801 99.5459 363.801 99.5459L345.173 105.755L334.397 106.732L337.365 116.526L368.699 111.88C368.699 111.88 403.584 90.6965 393.465 78.7495Z" fill="#2F2E41"/>
<path d="M359.075 138.355C359.075 138.355 347.371 146.73 348.151 154.308C348.931 161.885 354.003 182.624 354.003 182.624L364.537 181.029C364.537 181.029 365.708 165.076 361.806 159.094L380.533 148.325L359.075 138.355Z" fill="#FFB8B8"/>
<path d="M385.02 158.096C385.02 158.096 384.24 172.853 386.19 178.835C388.141 184.818 390.092 207.152 390.092 207.152H401.016C401.016 207.152 406.088 187.61 399.845 178.835C399.845 178.835 397.895 167.269 403.357 161.686L385.02 158.096Z" fill="#FFB8B8"/>
<path d="M382.484 117.217C382.484 117.217 357.125 133.569 357.125 138.753L377.412 155.903L384.435 147.926L383.654 159.891L405.503 164.278C405.503 164.278 413.306 133.968 412.915 132.771C412.525 131.575 411.355 114.026 411.355 114.026L382.484 117.217Z" fill="#2F2E41"/>
<path d="M364.537 179.035L353.223 181.428L355.233 189.876C356.223 194.034 356.335 198.36 355.564 202.566C355.564 202.566 367.268 205.756 367.268 204.161C367.268 202.566 364.537 196.184 365.317 191.797C366.098 187.41 364.537 179.035 364.537 179.035Z" fill="#2F55FF"/>
<path d="M370.389 208.947C369.999 207.351 366.758 200.118 366.623 201.342C366.488 202.566 360.246 204.56 357.905 202.167C357.905 202.167 354.784 199.375 353.613 202.167C352.443 204.959 350.102 209.744 350.102 209.744C350.102 209.744 339.568 214.929 341.128 217.721C341.444 218.286 342.319 218.524 343.512 218.545C343.484 218.618 343.47 218.697 343.469 218.776V219.059C343.469 219.233 343.537 219.4 343.657 219.523C343.778 219.646 343.941 219.715 344.111 219.715H344.388C344.558 219.715 344.721 219.646 344.842 219.523C344.962 219.4 345.03 219.233 345.03 219.059V218.776C345.029 218.674 345.005 218.574 344.96 218.484C345.279 218.455 345.61 218.417 345.95 218.371C345.86 218.486 345.811 218.629 345.81 218.776V219.059C345.81 219.233 345.878 219.4 345.998 219.523C346.119 219.646 346.282 219.715 346.452 219.715H346.729C346.899 219.715 347.062 219.646 347.183 219.523C347.303 219.4 347.371 219.233 347.371 219.059V218.776C347.37 218.659 347.34 218.544 347.281 218.444C347.223 218.344 347.139 218.261 347.039 218.205C347.937 218.051 348.874 217.857 349.806 217.641C349.745 217.742 349.712 217.859 349.712 217.978V218.261C349.712 218.435 349.779 218.602 349.9 218.725C350.02 218.848 350.183 218.917 350.354 218.917H350.63C350.8 218.917 350.964 218.848 351.084 218.725C351.205 218.602 351.272 218.435 351.272 218.261V217.978C351.272 217.852 351.236 217.727 351.168 217.621C351.1 217.515 351.004 217.431 350.891 217.379C351.59 217.205 352.275 217.024 352.927 216.844C352.866 216.945 352.833 217.062 352.833 217.181V217.463C352.833 217.637 352.9 217.804 353.021 217.928C353.141 218.051 353.305 218.12 353.475 218.12H353.751C353.922 218.12 354.085 218.051 354.205 217.928C354.326 217.804 354.393 217.637 354.393 217.463V217.181C354.393 217.041 354.349 216.905 354.268 216.793C354.187 216.681 354.072 216.598 353.942 216.557C356.233 215.897 357.905 215.328 357.905 215.328C357.905 215.328 359.846 214.606 362.196 213.63V213.874C362.196 214.048 362.264 214.215 362.384 214.338C362.505 214.461 362.668 214.53 362.838 214.53H363.115C363.285 214.53 363.448 214.461 363.569 214.338C363.689 214.215 363.757 214.048 363.757 213.874V213.591C363.757 213.492 363.734 213.394 363.691 213.304C363.648 213.215 363.586 213.137 363.509 213.076C363.98 212.874 364.456 212.665 364.927 212.453V212.678C364.927 212.852 364.995 213.019 365.115 213.142C365.236 213.265 365.399 213.334 365.569 213.334H365.846C366.016 213.334 366.179 213.265 366.3 213.142C366.42 213.019 366.488 212.852 366.488 212.678V212.395C366.488 212.289 366.463 212.185 366.415 212.092C366.367 211.998 366.298 211.918 366.213 211.858C366.722 211.615 367.213 211.372 367.665 211.135C367.663 211.156 367.658 211.177 367.658 211.198V211.481C367.658 211.655 367.726 211.822 367.846 211.945C367.967 212.068 368.13 212.137 368.3 212.137H368.577C368.747 212.137 368.91 212.068 369.031 211.945C369.151 211.822 369.219 211.655 369.219 211.481V211.198C369.219 211.047 369.168 210.9 369.074 210.783C368.981 210.666 368.85 210.586 368.705 210.555C369.796 209.908 370.484 209.333 370.389 208.947Z" fill="#2F2E41"/>
<path d="M401.796 205.357L389.436 204.56C389.436 204.56 390.185 217.721 388.687 222.108C387.189 226.495 387.938 228.09 387.938 228.09L398.8 228.888L401.796 205.357Z" fill="#2F55FF"/>
<path d="M401.948 234.445C401.892 232.802 400.197 225.037 399.815 226.205C399.434 227.373 392.922 227.993 391.121 225.153C391.121 225.153 388.638 221.758 386.923 224.239C385.209 226.72 381.944 230.901 381.944 230.901C381.944 230.901 370.584 233.727 371.541 236.79C371.734 237.41 372.541 237.829 373.704 238.104C373.662 238.17 373.631 238.244 373.615 238.321L373.557 238.597C373.522 238.768 373.554 238.945 373.646 239.091C373.739 239.237 373.885 239.34 374.051 239.376L374.322 239.435C374.488 239.471 374.662 239.439 374.805 239.344C374.948 239.249 375.048 239.1 375.083 238.93L375.141 238.654C375.161 238.554 375.158 238.451 375.132 238.352C375.45 238.393 375.782 238.426 376.124 238.454C376.012 238.547 375.935 238.676 375.904 238.82L375.847 239.096C375.811 239.267 375.843 239.444 375.936 239.59C376.029 239.736 376.174 239.839 376.341 239.875L376.611 239.934C376.778 239.97 376.951 239.937 377.094 239.843C377.237 239.748 377.337 239.599 377.373 239.429L377.431 239.152C377.454 239.038 377.447 238.919 377.411 238.809C377.374 238.698 377.309 238.599 377.222 238.523C378.132 238.564 379.088 238.574 380.044 238.561C379.963 238.647 379.907 238.755 379.883 238.871L379.825 239.148C379.789 239.318 379.822 239.496 379.914 239.642C380.007 239.788 380.153 239.89 380.319 239.927L380.589 239.985C380.756 240.022 380.93 239.989 381.073 239.894C381.216 239.799 381.316 239.651 381.351 239.48L381.409 239.204C381.435 239.08 381.425 238.951 381.38 238.832C381.336 238.714 381.258 238.611 381.158 238.537C381.877 238.515 382.584 238.484 383.258 238.447C383.178 238.533 383.123 238.64 383.098 238.756L383.04 239.033C383.005 239.203 383.037 239.381 383.129 239.527C383.222 239.673 383.368 239.775 383.534 239.812L383.805 239.871C383.971 239.907 384.145 239.874 384.288 239.779C384.431 239.685 384.531 239.536 384.566 239.366L384.624 239.089C384.652 238.952 384.637 238.81 384.58 238.683C384.524 238.556 384.429 238.451 384.31 238.383C386.685 238.226 388.436 238.025 388.436 238.025C388.436 238.025 390.482 237.733 392.98 237.28L392.93 237.518C392.895 237.688 392.927 237.866 393.019 238.012C393.112 238.158 393.258 238.261 393.424 238.297L393.694 238.356C393.861 238.392 394.035 238.359 394.178 238.265C394.321 238.17 394.421 238.021 394.456 237.851L394.514 237.574C394.534 237.477 394.532 237.376 394.508 237.28C394.484 237.183 394.439 237.094 394.376 237.018C394.879 236.92 395.387 236.818 395.891 236.711L395.845 236.93C395.81 237.1 395.842 237.278 395.934 237.424C396.027 237.57 396.173 237.673 396.339 237.709L396.609 237.768C396.776 237.804 396.95 237.771 397.093 237.676C397.236 237.582 397.336 237.433 397.371 237.263L397.429 236.986C397.45 236.883 397.447 236.776 397.42 236.674C397.392 236.573 397.34 236.479 397.27 236.402C397.817 236.273 398.346 236.141 398.837 236.005C398.831 236.025 398.822 236.044 398.818 236.066L398.76 236.342C398.725 236.512 398.757 236.69 398.849 236.836C398.942 236.982 399.088 237.084 399.254 237.121L399.525 237.18C399.691 237.216 399.865 237.183 400.008 237.088C400.151 236.994 400.251 236.845 400.286 236.675L400.344 236.398C400.375 236.25 400.355 236.096 400.287 235.961C400.219 235.827 400.108 235.72 399.973 235.66C401.172 235.259 401.962 234.844 401.948 234.445Z" fill="#2F2E41"/>
<path d="M382.484 65.3694C388.733 65.3694 393.798 60.1912 393.798 53.8035C393.798 47.4158 388.733 42.2375 382.484 42.2375C376.235 42.2375 371.17 47.4158 371.17 53.8035C371.17 60.1912 376.235 65.3694 382.484 65.3694Z" fill="#FFB8B8"/>
<path d="M392.628 52.607C392.628 52.607 398.87 60.5835 401.991 60.1847L388.336 70.953C388.336 70.953 386.776 64.173 384.825 63.3753C382.874 62.5777 392.628 52.607 392.628 52.607Z" fill="#FFB8B8"/>
<path d="M417.012 111.833C417.012 111.833 417.011 67.8237 409.789 64.0327C402.571 60.2438 397.797 58.0814 397.797 58.0814C397.69 59.5254 397.289 60.9306 396.618 62.2061C395.948 63.4816 395.023 64.5991 393.903 65.4864C391.51 67.3751 389.126 68.9412 387.794 68.9462L387.751 68.7595L387.588 68.2853L383.654 74.5425C383.654 74.5425 380.143 75.3401 378.972 77.7331C378.339 79.0277 381.325 92.0601 379.558 103.856C378.058 113.864 371.739 122.898 371.56 123.997C371.257 125.854 378.938 120.989 382.396 118.715C382.447 118.773 382.484 118.812 382.484 118.812C382.484 118.812 380.533 119.61 384.435 118.413C386.645 117.735 389.732 117.698 391.992 117.792C391.99 118.485 392.006 119.036 392.042 119.41C392.433 123.399 411.94 128.982 414.671 127.786C417.402 126.589 417.012 111.833 417.012 111.833Z" fill="#2F2E41"/>
<path d="M403.357 126.988C403.357 126.988 391.652 137.756 399.455 139.75C407.258 141.745 410.379 128.583 410.379 128.583L403.357 126.988Z" fill="#FFB8B8"/>
<path d="M389.702 154.906C389.702 154.906 395.164 149.721 398.285 152.513C401.406 155.305 403.357 157.299 403.357 157.299C403.357 157.299 394.383 151.715 389.702 154.906Z" fill="#2F55FF"/>
<path d="M391.12 216.943C391.12 216.943 394.199 214.02 395.958 215.594C397.717 217.167 398.817 218.291 398.817 218.291C398.817 218.291 393.759 215.144 391.12 216.943Z" fill="#2F2E41"/>
<path d="M356.63 189.761C356.63 189.761 358.743 186.049 360.875 187.031C363.006 188.013 364.377 188.761 364.377 188.761C364.377 188.761 358.643 187.255 356.63 189.761Z" fill="#2F2E41"/>
<path d="M414.064 69.5048C410.196 61.5578 398.429 65.8921 400.341 74.5502C400.369 74.6793 400.399 74.8097 400.43 74.9413C402.446 83.1372 405.739 90.9478 410.184 98.0732L405.892 117.616L401.211 127.586L410.964 129.979L423.059 100.067C423.059 100.067 419.723 81.1338 414.064 69.5048Z" fill="#2F2E41"/>
<path opacity="0.2" d="M408.428 98.6713L401.016 127.387L407.258 113.827L408.428 98.6713Z" fill="black"/>
<path d="M389.589 40.3216C389.589 40.3216 383.335 33.5909 377.04 37.8296C370.745 42.0684 367.759 46.186 368.376 49.053C368.993 51.92 370.82 55.9078 370.82 55.9078C370.82 55.9078 369.685 49.9683 374.897 49.5287C380.11 49.0892 387.311 45.5629 387.311 45.5629L392.183 56.1971C392.183 56.1971 392.871 53.7328 394.78 54.4397C396.69 55.1465 395.21 41.11 389.589 40.3216Z" fill="#2F2E41"/>
<path d="M349.516 192.395C349.516 193.406 349.434 194.414 349.271 195.411V195.415C348.823 198.095 347.785 200.636 346.236 202.846C344.686 205.057 342.666 206.878 340.328 208.174C337.989 209.469 335.393 210.205 332.736 210.325C330.079 210.445 327.429 209.947 324.988 208.867H324.984C324.262 208.548 323.562 208.179 322.889 207.762C320.804 206.475 319.003 204.76 317.601 202.724C316.199 200.689 315.225 198.377 314.743 195.937C314.517 194.771 314.403 193.584 314.403 192.395C314.403 191.853 314.427 191.315 314.474 190.784V190.78C314.878 186.2 316.987 181.954 320.366 178.918C323.744 175.881 328.133 174.286 332.628 174.462C337.123 174.637 341.381 176.57 344.523 179.861C347.664 183.152 349.451 187.55 349.513 192.148V192.152C349.516 192.236 349.516 192.312 349.516 192.395Z" fill="#2F55FF"/>
<path d="M336.282 186.401H328.419L324.487 179.441L327.154 174.716L327.309 174.673C330.685 173.751 334.251 173.853 337.571 174.967L337.713 175.015L340.213 179.441L336.282 186.401ZM328.869 185.603H335.831L339.312 179.441L337.186 175.678C334.101 174.677 330.803 174.582 327.667 175.402L325.388 179.441L328.869 185.603Z" fill="white"/>
<path d="M335.892 200.759H328.028L324.097 193.798L328.028 186.837H335.892L339.823 193.798L335.892 200.759ZM328.479 199.961H335.441L338.922 193.798L335.441 187.635H328.479L324.998 193.798L328.479 199.961Z" fill="white"/>
<path d="M331.96 210.741C329.508 210.746 327.081 210.232 324.833 209.233L324.432 209.055L328.418 201.991H336.282L340.101 208.753L339.721 208.939C337.301 210.132 334.647 210.748 331.96 210.741ZM325.547 208.674C327.692 209.556 329.99 209.987 332.301 209.94C334.613 209.894 336.892 209.37 339.002 208.402L335.831 202.789H328.869L325.547 208.674Z" fill="white"/>
<path d="M349.156 193.58H341.293L337.362 186.62L341.293 179.657H344.874L344.989 179.781C348.094 183.12 349.849 187.536 349.903 192.143V192.259L349.156 193.58ZM341.744 192.782H348.706L349.121 192.048C349.046 187.738 347.413 183.608 344.537 180.454H341.744L338.263 186.62L341.744 192.782Z" fill="white"/>
<path d="M341.185 208.142L337.362 201.377L341.293 194.413H349.156L349.661 195.303L349.655 195.481C349.229 198.021 348.285 200.441 346.885 202.584C345.485 204.727 343.66 206.545 341.528 207.92L341.185 208.142ZM338.263 201.377L341.452 207.02C343.384 205.707 345.037 204.009 346.31 202.027C347.584 200.045 348.452 197.82 348.863 195.486L348.706 195.211H341.744L338.263 201.377Z" fill="white"/>
<path d="M323.028 208.314L322.688 208.104C320.557 206.787 318.717 205.033 317.283 202.952C315.85 200.872 314.855 198.509 314.36 196.015L314.332 195.868L315.154 194.413H323.017L326.949 201.377L323.028 208.314ZM315.155 196.005C315.629 198.295 316.545 200.465 317.85 202.389C319.154 204.312 320.821 205.95 322.753 207.207L326.048 201.377L322.566 195.211H315.604L315.155 196.005Z" fill="white"/>
<path d="M323.017 192.782H315.154L314.083 190.891V190.784C314.469 186.264 316.483 182.052 319.736 178.966L319.849 178.859H323.017L326.948 185.823L323.017 192.782ZM315.604 191.985H322.566L326.047 185.823L322.566 179.657H320.156C317.147 182.561 315.269 186.482 314.873 190.694L315.604 191.985Z" fill="white"/>
<g clip-path="url(#clip2_101_266)">
<path d="M277.993 166.483L281.124 228.808L288.95 227.831L293.237 163.403L277.993 166.483Z" fill="#FFB6B6"/>
<path d="M289.977 225.038C289.977 225.038 294.33 236.883 288.638 237.58C282.946 238.277 266.538 241.412 266.538 236.883C266.538 232.354 274.909 230.612 274.909 230.612C274.909 230.612 278.927 223.993 280.602 224.69C282.276 225.386 283.615 229.219 286.629 228.174C289.643 227.128 289.977 225.038 289.977 225.038Z" fill="#2F2E41"/>
<path d="M278.425 84.1155H268.714V97.0058H278.425V84.1155Z" fill="#FFB6B6"/>
<path d="M273.319 90.7348C279.468 90.7348 284.452 85.5485 284.452 79.1509C284.452 72.7534 279.468 67.5671 273.319 67.5671C267.17 67.5671 262.185 72.7534 262.185 79.1509C262.185 85.5485 267.17 90.7348 273.319 90.7348Z" fill="#FFB6B6"/>
<path d="M285.624 126.444L286.964 114.948L293.326 115.296L294.665 128.883L299.936 154.045L299.949 154.041L299.943 154.043L301.475 160.914C302.41 162.121 303.053 163.544 303.352 165.062C304.149 168.853 302.916 172.352 300.598 172.88C298.28 173.407 295.756 170.763 294.96 166.974C294.621 165.463 294.635 163.891 295.001 162.388L293.572 157.187L285.624 126.444Z" fill="#FFB6B6"/>
<path d="M268.045 93.1735H279.764L291.149 99.4445L287.131 124.528L291.819 140.206C291.819 140.206 266.705 148.219 259.004 144.735L262.352 124.528L260.008 97.7025C260.008 97.7025 268.045 93.1735 268.045 93.1735Z" fill="#2F55FF"/>
<path d="M288.973 99.6187C288.973 99.6187 292.991 98.2251 293.661 100.664C294.33 103.103 296.005 117.735 296.005 117.735L285.959 118.083C285.959 118.083 288.973 99.6187 288.973 99.6187Z" fill="#2F55FF"/>
<path d="M234.122 145.461C233.716 145.461 233.321 145.428 232.94 145.363C231.391 145.096 230.277 144.314 229.804 143.159C229.33 142.004 229.559 140.625 230.447 139.278C231.319 137.955 232.729 136.814 234.416 136.065C235.783 135.437 237.294 135.151 238.785 135.236L252.651 127.727L253.657 116.917L261.33 113.651L262.397 128.356C262.576 130.823 261.22 133.115 259.023 134.061L241.522 141.899C240.547 143.081 239.301 144.018 237.917 144.608C236.652 145.169 235.341 145.461 234.122 145.461Z" fill="#FFB6B6"/>
<path d="M262.855 97.5284C262.855 97.5284 256.158 95.0897 254.148 102.754C252.139 110.419 252.809 117.386 252.809 117.386L264.194 116.341C264.194 116.341 262.855 97.5284 262.855 97.5284Z" fill="#2F55FF"/>
<path d="M226.162 126.27C226.162 129.74 228.867 132.555 232.202 132.555C233.994 132.555 235.601 131.743 236.706 130.458C236.706 130.458 236.709 130.454 236.713 130.454C237.433 129.615 237.938 128.57 238.139 127.413C238.166 127.295 238.183 127.173 238.196 127.047C238.226 126.807 238.24 126.563 238.243 126.312V126.27C238.243 122.8 235.541 119.985 232.202 119.985C229.982 119.985 228.04 121.233 226.992 123.093C226.824 123.382 226.684 123.689 226.57 124.009C226.306 124.709 226.162 125.472 226.162 126.27Z" fill="#2F55FF"/>
<path d="M226.57 124.009C226.895 123.908 227.256 123.751 227.652 123.532C227.789 123.459 227.896 123.389 227.993 123.326C228.194 123.201 228.301 123.135 228.502 123.107C229.001 123.041 229.433 123.323 229.617 123.441C230.183 123.814 230.438 124.337 230.682 124.845C230.816 125.124 231.06 125.713 231.168 126.511C231.231 126.974 231.211 127.222 231.191 127.444C231.171 127.695 231.154 127.932 231.248 128.322C231.509 129.378 232.229 130.057 232.634 130.367C233.307 130.883 234.014 131.141 234.737 131.141C234.831 131.141 234.921 131.137 235.012 131.13C235.38 131.099 236.07 130.963 236.706 130.458C236.706 130.458 236.709 130.454 236.713 130.454C237.433 129.615 237.938 128.57 238.139 127.413C238.139 127.385 238.136 127.361 238.133 127.336C238.119 127.267 238.099 127.121 238.133 127.068C238.139 127.068 238.152 127.061 238.196 127.047C238.226 126.807 238.24 126.563 238.243 126.312C237.838 126.41 237.701 126.521 237.614 126.629C237.389 126.922 237.446 127.288 237.466 127.423C237.567 128.103 237.054 129.238 236.398 129.824C235.849 130.308 235.206 130.412 234.955 130.434C233.967 130.521 233.264 129.984 233.033 129.807C232.698 129.552 232.105 128.995 231.898 128.152C231.831 127.873 231.841 127.726 231.861 127.504C231.881 127.256 231.904 126.953 231.831 126.413C231.71 125.518 231.432 124.852 231.282 124.532C231.02 123.995 230.699 123.326 229.972 122.853C229.748 122.706 229.155 122.323 228.419 122.417C228.077 122.463 227.876 122.588 227.645 122.731C227.558 122.786 227.461 122.849 227.34 122.915C227.216 122.981 227.099 123.044 226.992 123.093C226.824 123.382 226.684 123.689 226.57 124.009Z" fill="#F2F2F2"/>
<path d="M299.288 174.206L295.047 173.129L303.362 144.435L302.059 138.494L311.178 140.864L306.759 145.958L299.288 174.206Z" fill="#3F3D56"/>
<path d="M321.86 128.737C324.706 119.685 321.883 110.601 315.555 108.448C309.228 106.295 301.791 111.888 298.945 120.94C296.1 129.992 298.923 139.076 305.25 141.229C311.578 143.383 319.015 137.79 321.86 128.737ZM320.587 128.304C318.058 136.351 311.447 141.322 305.823 139.408C300.198 137.494 297.689 129.42 300.219 121.373C302.748 113.326 309.358 108.355 314.983 110.269C320.607 112.183 323.117 120.258 320.587 128.304Z" fill="#3F3D56"/>
<path d="M284.104 79.158L286.036 84.4544L290.715 93.1879C295.579 102.267 297.7 112.66 296.801 123.012L284.38 122.377L282.942 118.142C279.317 107.464 277.985 96.1492 278.434 84.834C278.648 79.4197 276.377 75.3081 271.393 72.6187L284.104 79.158Z" fill="#2F2E41"/>
<path d="M285.457 83.0703L280.099 77.8445C280.099 77.8445 273.068 75.4058 270.054 73.3155C268.147 71.9929 265.302 73.4597 263.469 74.7156C262.293 75.5218 260.789 75.5953 259.552 74.8934C258.664 74.3897 258.275 73.2781 258.644 72.2987C260.011 68.6633 263.703 66.5887 267.375 67.3929L270.018 65.4291C272.743 63.4038 276.287 63.0052 279.365 64.3778L281.098 65.1505C282.848 65.931 284.335 67.236 285.37 68.8993C286.715 71.0623 287.203 73.6829 286.733 76.2123L285.457 83.0703Z" fill="#2F55FF"/>
<path d="M255.515 167.385L252.429 229.712L260.309 229.584L270.983 165.964L255.515 167.385Z" fill="#FFB6B6"/>
<path d="M290.751 137.567C290.751 137.567 297.448 148.367 296.778 163.696C296.778 163.696 278.027 175.889 254.587 168.573C254.587 168.573 256.931 146.973 259.945 143.489L290.751 137.567Z" fill="#2F2E41"/>
<path d="M261.85 225.038C261.85 225.038 266.203 236.883 260.511 237.58C254.818 238.277 238.41 241.412 238.41 236.883C238.41 232.354 246.782 230.612 246.782 230.612C246.782 230.612 250.8 223.993 252.474 224.69C254.148 225.386 255.488 229.219 258.501 228.174C261.515 227.128 261.85 225.038 261.85 225.038Z" fill="#2F2E41"/>
</g>
</g>
<g clip-path="url(#clip3_101_266)">
<path d="M51.235 41.2503L50.3612 46.3606L59.7551 47.9159L57.5705 40.806L51.235 41.2503Z" fill="#A0616A"/>
<path d="M27.2761 44.6298C25.3842 45.4919 24.9298 48.6447 26.2646 51.6686C26.7802 52.884 27.5776 53.9571 28.5847 54.797L30.4919 59.9739C31.7437 66.1462 34.5903 72.6451 38.5139 72.1407C44.065 71.4275 45.8149 64.5664 45.8149 64.5664L38.3435 61.5936L35.0075 55.0547L33.8715 52.3863C33.9261 51.062 33.6684 49.7445 33.1178 48.5447C31.7852 45.5185 29.1702 43.7677 27.2761 44.6298Z" fill="#A0616A"/>
<path d="M90.8686 143.94L96.0483 140.045L96.0068 139.961L67.1456 81.4747L67.091 81.4658L43.8508 77.4532L39.0097 88.418L26.3519 106.519C25.4802 107.766 25.0236 109.235 25.0345 110.765L25.2399 143.009L33.0937 143.238L33.1046 143.136L35.8441 117.067C36.0429 115.167 37.0129 113.409 38.5028 112.245L53.9526 100.174L90.8707 143.942L90.8686 143.94Z" fill="#2F2E41"/>
<path d="M95.2554 140.456C95.2554 140.456 97.8769 140.9 98.7508 142.456C99.6246 144.011 102.246 147.344 102.246 147.344C102.246 147.344 104.212 151.121 99.6246 150.677C95.0369 150.232 93.2892 148.232 93.2892 148.232L91.323 142.678L95.2554 140.456Z" fill="#2F2E41"/>
<path d="M29.0608 140.456C29.0608 140.456 26.4393 140.9 25.5654 142.456C24.6915 144.011 22.07 147.344 22.07 147.344C22.07 147.344 20.1038 151.121 24.6915 150.677C29.2793 150.232 31.027 148.232 31.027 148.232L32.9932 142.678L29.0608 140.456Z" fill="#2F2E41"/>
<path d="M64.1242 47.6937L48.6133 44.5831L39.8748 47.4715L42.2779 80.5771L67.0735 81.5769L64.1242 47.6937Z" fill="#2F55FF"/>
<path d="M41.4302 46.7316L38.0527 51.9219L37.2685 64.7175L47.3025 65.4929L47.0316 48.9135L41.4302 46.7316Z" fill="#2F55FF"/>
<path d="M32.1456 59.1851L36.2046 57.5454L41.3669 67.2704L36.6525 69.6611L32.1456 59.1851Z" fill="#A0616A"/>
<path d="M29.3142 50.9087C29.596 50.9087 29.8778 50.8599 30.1487 50.7621C30.7997 50.5266 31.3262 50.02 31.5971 49.3734L34.6775 42.0147C35.8375 39.2418 37.1701 36.5111 38.6382 33.896L39.2805 32.7495C39.724 32.0563 50.2037 15.6546 50.7018 14.3726C51.0775 13.4061 49.9546 11.4264 49.9066 11.342L49.8935 11.3242C49.8694 11.2954 47.3549 8.50915 44.3292 11.0976C41.3581 13.6372 36.3596 30.4699 36.1477 31.1854L36.0123 31.532C34.7801 34.7003 33.2203 37.7509 31.3787 40.5971L27.2388 46.9961C26.8543 47.5915 26.7341 48.3292 26.9089 49.0179C27.0837 49.7067 27.5403 50.2911 28.1629 50.6221C28.5212 50.8132 28.9166 50.9087 29.3142 50.9087Z" fill="#3F3D56"/>
<path d="M56.9368 53.2506L52.0585 53.5283L42.6886 43.4744L39.0272 39.0485C38.706 37.7643 38.0878 36.5778 37.2248 35.5869C35.0948 33.0762 32.0975 32.1585 30.5267 33.5361C28.956 34.9136 29.4082 38.0642 31.5382 40.5749C32.3749 41.5903 33.441 42.3857 34.6426 42.8967L35.5449 44.1076L45.8869 58.8918C47.7526 61.5603 51.0514 62.7668 54.1623 61.918L60.4912 60.1916L56.9368 53.2483V53.2506Z" fill="#A0616A"/>
<path d="M59.6742 63.1578L67.2002 58.2408C69.5924 56.6789 70.5122 53.6172 69.3871 50.9621C68.7033 49.349 67.3619 48.1403 65.706 47.6471C64.0522 47.1516 62.2783 47.4293 60.8451 48.4114L53.4545 53.4705L59.6742 63.1578Z" fill="#2F55FF"/>
<path d="M56.0368 43.13C51.7777 43.13 48.325 39.6185 48.325 35.2869C48.325 30.9552 51.7777 27.4438 56.0368 27.4438C60.2959 27.4438 63.7485 30.9552 63.7485 35.2869C63.7485 39.6185 60.2959 43.13 56.0368 43.13Z" fill="#A0616A"/>
<path d="M50.964 42.0569L51.6303 40.9282C51.6303 40.9282 48.7138 38.9285 51.1235 37.7687C53.5332 36.6089 53.9133 33.7716 53.9133 33.7716C53.9133 33.7716 60.9522 31.7097 60.5721 30.1611C60.1919 28.6124 61.269 27.5171 59.495 26.8727C57.7189 26.2284 49.7952 26.8727 48.9061 28.7413C48.0191 30.6121 47.13 35.769 47.5735 36.48C48.0169 37.191 50.964 42.0591 50.964 42.0591V42.0569Z" fill="#2F2E41"/>
<path d="M52.963 33.1895L60.1286 28.3547C60.1286 28.3547 69.3849 25.4552 65.8982 30.9987L62.949 31.6119C62.949 31.6119 54.9292 33.5138 52.963 33.1895Z" fill="#2F55FF"/>
<path d="M55.1192 32.0941L47.6369 37.8331C47.6369 37.8331 43.2632 29.9011 50.112 25.9684C56.9609 22.0358 61.3018 28.1947 61.3018 28.1947L59.4951 30.1611L55.1192 32.0941Z" fill="#2F55FF"/>
<path d="M108.881 19.1429C108.881 21.5381 106.971 23.4822 104.614 23.4822C103.461 23.4822 102.414 23.0156 101.648 22.258C100.846 21.4692 100.35 20.3649 100.35 19.1429C100.35 16.7478 102.259 14.8036 104.614 14.8036C105.353 14.8036 106.045 14.9947 106.65 15.328C106.753 15.3858 106.854 15.448 106.952 15.5146C107.874 16.1279 108.544 17.0944 108.783 18.2253C108.813 18.3542 108.835 18.4853 108.848 18.6186C108.87 18.7897 108.881 18.9652 108.881 19.1429Z" fill="#2F55FF"/>
<path d="M108.848 18.6186C108.78 18.6941 108.711 18.7763 108.634 18.8696C108.376 19.1851 108.274 19.3562 108.129 19.594C108.005 19.8006 107.848 20.0583 107.54 20.4938C106.904 21.3914 106.585 21.8425 106.089 22.2513C105.6 22.6534 104.99 23.1556 104.075 23.22C104.011 23.2245 103.948 23.2245 103.887 23.2245C102.779 23.2245 101.971 22.5468 101.663 22.2424C100.857 21.4425 100.689 20.4716 100.654 20.0917C100.625 19.785 100.586 18.7097 101.278 17.7432C101.89 16.89 102.736 16.5856 103.555 16.2878C104.09 16.0945 104.496 16.0257 104.857 15.9635C105.351 15.879 105.774 15.8057 106.423 15.4591C106.513 15.4102 106.587 15.368 106.65 15.328C106.753 15.3858 106.854 15.448 106.952 15.5146C106.937 15.5235 106.919 15.5346 106.902 15.5457C106.816 15.5968 106.712 15.6591 106.567 15.7368C105.875 16.1079 105.405 16.1901 104.909 16.2745C104.544 16.3367 104.166 16.4012 103.657 16.5856C102.849 16.8789 102.085 17.1544 101.53 17.9298C100.9 18.8074 100.938 19.7828 100.962 20.0605C100.994 20.4072 101.147 21.2892 101.879 22.0158C102.174 22.3068 102.974 22.9801 104.053 22.9045C104.872 22.8467 105.438 22.3802 105.895 22.0069C106.358 21.6247 106.668 21.1848 107.286 20.3116C107.59 19.8828 107.743 19.6295 107.865 19.4273C108.009 19.1896 108.123 19.0007 108.394 18.6697C108.54 18.4897 108.669 18.3453 108.783 18.2253C108.813 18.3542 108.835 18.4853 108.848 18.6186Z" fill="#E6E6E6"/>
</g>
</g>
<defs>
<clipPath id="clip0_101_266">
<rect width="490" height="240" fill="white"/>
</clipPath>
<clipPath id="clip1_101_266">
<rect width="334.345" height="203.571" fill="white" transform="translate(225.45 36.4286)"/>
</clipPath>
<clipPath id="clip2_101_266">
<rect width="245" height="175.714" fill="white" transform="translate(136.667 63.5714)"/>
</clipPath>
<clipPath id="clip3_101_266">
<rect width="159.843" height="140.714" fill="white" transform="matrix(-1 0 0 1 148.13 10)"/>
</clipPath>
</defs>
</svg>
