<svg width="490" height="240" viewBox="0 0 490 240" fill="none" xmlns="http://www.w3.org/2000/svg">
<g clip-path="url(#clip0_101_266)">
<path d="M472.402 120.585C457.379 90.8613 427.979 65.5045 392.463 61.3716C383.073 60.2786 373.268 60.7172 364.555 64.1021C353.118 68.5457 344.689 77.5148 336.17 85.7898C318.134 103.303 297.951 118.855 276.02 132.14C265.195 138.695 253.584 144.81 240.732 146.487C214.964 149.85 189.476 133.778 177.724 112.536C170.384 99.2663 166.991 83.6866 161.057 69.8843C154.225 69.872 146.08 69.8745 137.32 69.9112C113.105 70.0136 93.3954 70.3401 93.3954 70.3401C93.3954 70.3401 116.823 41.9561 137.232 52.4722C143.754 55.8326 150.585 58.8315 156.863 61.3556C153.296 55.0809 148.798 49.4353 142.609 44.8962C130.406 35.9455 113.877 33.4348 98.2523 34.1014C81.8414 34.801 65.2859 38.8188 51.9536 47.5937C28.2027 63.2254 18.395 90.74 10 116.377L30.2905 125.681C38.9937 118.799 51.7211 111.992 63.4519 118.036C83.857 128.553 107.301 135.537 107.301 135.537C107.301 135.537 87.7513 135.376 63.5363 135.476C59.4691 135.493 55.5345 135.517 51.7935 135.544L277.069 238.837C351.372 239.793 407.396 236.119 478 238.837C481.685 238.978 489.965 221.324 489.99 216.678C490.188 183.934 487.425 150.309 472.402 120.585ZM400.254 129.494C376.039 129.597 356.329 129.923 356.329 129.923C356.329 129.923 379.757 101.539 400.165 112.055C420.574 122.571 444.018 129.554 444.018 129.554C444.018 129.554 424.468 129.392 400.253 129.492L400.254 129.494Z" fill="#F2F2F2"/>
<path d="M490 240H10V239H489.519L490 240Z" fill="#CCCCCC"/>
<path d="M186.523 92.2387C186.523 92.2387 189.422 70.4814 194.255 76.4137C199.088 82.346 194.255 91.2493 194.255 91.2493L190.387 96.1947L186.521 93.2275L186.523 92.2387Z" fill="#FFB9B9"/>
<path d="M174.924 99.1613C174.924 99.1613 184.589 88.2826 186.522 90.2599C188.455 92.2372 194.255 93.227 193.288 97.183C192.321 101.139 172.024 113.998 172.024 113.998L174.924 99.1613Z" fill="#2F55FF"/>
<path opacity="0.1" d="M174.924 99.1613C174.924 99.1613 184.589 88.2826 186.522 90.2599C188.455 92.2372 194.255 93.227 193.288 97.183C192.321 101.139 172.024 113.998 172.024 113.998L174.924 99.1613Z" fill="black"/>
<path d="M119.833 98.1724V106.085C119.833 106.085 118.866 123.888 124.666 122.899C130.465 121.91 127.565 107.074 127.565 107.074L126.599 98.1724H119.833Z" fill="#FFB9B9"/>
<path d="M122.732 155.537C122.732 155.537 114.034 169.384 111.134 170.373C108.235 171.362 92.7702 180.263 90.8375 189.164L77.3062 206.967L84.0716 215.869C84.0716 215.869 115 182.242 123.699 179.276C132.397 176.309 141.096 161.473 141.096 161.473L122.732 155.537Z" fill="#FFB9B9"/>
<path d="M191.355 132.789C191.355 132.789 209.718 135.756 206.819 147.625C203.92 159.493 175.891 184.22 175.891 184.22L174.924 190.154L164.293 192.132L159.461 187.187L160.427 184.22C160.427 184.22 172.025 173.341 172.992 169.384C173.958 165.427 184.59 149.603 189.422 148.614L182.657 144.658L191.355 132.789Z" fill="#FFB9B9"/>
<path d="M80.2053 206.968C80.2053 206.968 84.0712 201.033 78.2721 202.022C72.4731 203.011 68.6072 204.001 68.6072 207.957C68.6072 211.913 73.4399 239.606 79.238 237.628C85.0361 235.65 80.2044 226.749 80.2044 226.749C80.2044 226.749 83.1039 218.837 85.0371 217.848C86.9703 216.859 86.9703 211.914 85.0371 211.914C83.1039 211.914 79.239 208.946 80.2053 206.968Z" fill="#2F2E41"/>
<path d="M162.359 185.208C162.359 185.208 162.359 180.263 158.493 185.208C154.627 190.154 152.694 194.11 156.56 197.077C160.426 200.044 173.957 206.967 173.957 206.967C173.957 206.967 188.455 209.934 186.522 203.011C186.522 203.011 176.857 198.066 176.857 194.11C176.857 190.154 176.857 183.231 173.957 185.208C171.058 187.186 162.359 188.177 162.359 185.208Z" fill="#2F2E41"/>
<path d="M143.996 111.03C143.996 111.03 130.464 113.008 131.431 132.787C131.431 132.787 114.034 150.59 118.867 156.524C123.699 162.458 134.331 173.338 138.197 170.371C142.063 167.404 153.661 144.658 153.661 144.658C153.661 144.658 180.723 154.548 185.556 149.603C190.388 144.659 195.22 132.79 195.22 132.79L171.058 119.931L143.996 111.03Z" fill="#090814"/>
<path d="M181.689 54.6544C188.095 54.6544 193.288 49.3407 193.288 42.7859C193.288 36.2311 188.095 30.9174 181.689 30.9174C175.284 30.9174 170.091 36.2311 170.091 42.7859C170.091 49.3407 175.284 54.6544 181.689 54.6544Z" fill="#FFB9B9"/>
<path d="M174.837 44.2448C174.837 44.2448 168.071 55.1234 166.138 56.1132C164.205 57.1031 179.669 66.9919 179.669 66.9919C179.669 66.9919 179.669 54.1345 184.502 51.1669L174.837 44.2448Z" fill="#FFB9B9"/>
<path d="M172.025 54.6545C172.025 54.6545 156.56 49.7091 153.661 57.6216C150.761 65.5341 143.996 80.3697 144.962 90.2599C145.928 100.15 147.861 98.1724 144.962 101.139C142.062 104.105 140.129 102.127 141.096 106.084C142.063 110.04 143.029 110.04 142.062 112.018C141.096 113.996 153.661 120.92 164.292 121.908L174.923 122.897C174.923 122.897 174.923 105.095 176.856 101.14C178.79 97.1855 182.655 89.2716 182.655 86.3044V78.4537C182.655 73.2284 181.323 68.0936 178.79 63.5568C178.79 63.5568 172.991 54.6545 172.025 54.6545Z" fill="#2F55FF"/>
<path d="M160.427 58.6109C160.427 58.6109 124.665 61.578 120.799 71.4683C116.933 81.3585 115 101.14 118.866 101.14C122.732 101.14 127.565 103.118 128.531 101.14C129.498 99.1613 133.364 79.3822 134.33 79.3822C135.297 79.3822 164.292 76.4151 164.292 76.4151C164.292 76.4151 176.856 60.5887 160.427 58.6109Z" fill="#2F55FF"/>
<path d="M182.158 39.8433C182.158 39.8433 185.236 34.3702 189.083 39.1239C192.93 43.8777 199.187 35.1415 198.229 33.2774C197.271 31.4133 193.875 33.3612 188.061 31.4153C182.246 29.4694 171.046 25.5075 169.17 38.4335C167.293 51.3595 171.761 50.0045 171.761 50.0045C171.761 50.0045 173.809 38.5506 175.66 41.8407L177.51 45.1307L179.116 45.535L182.158 39.8433Z" fill="#2F2E41"/>
<g clip-path="url(#clip1_101_266)">
<path d="M375.384 236.375C372.886 236.373 370.43 237.022 368.247 238.26H382.502C380.325 237.022 377.875 236.373 375.384 236.375Z" fill="#E6E6E6"/>
<path d="M403.047 234.49C398.876 234.485 394.805 235.802 391.397 238.26H414.681C411.277 235.805 407.213 234.488 403.047 234.49Z" fill="#E6E6E6"/>
<path d="M335.996 108.312C335.996 108.312 320.962 103.525 323.269 111.401C325.577 119.278 338.241 115.299 338.241 115.299L335.996 108.312Z" fill="#FFB8B8"/>
<path d="M393.465 78.7495C393.465 78.7495 385.76 67.9865 378.275 79.1599C370.775 90.3552 363.801 99.5459 363.801 99.5459L345.173 105.755L334.397 106.732L337.365 116.526L368.699 111.88C368.699 111.88 403.584 90.6965 393.465 78.7495Z" fill="#2F2E41"/>
<path d="M359.075 138.355C359.075 138.355 347.371 146.73 348.151 154.308C348.931 161.885 354.003 182.624 354.003 182.624L364.537 181.029C364.537 181.029 365.708 165.076 361.806 159.094L380.533 148.325L359.075 138.355Z" fill="#FFB8B8"/>
<path d="M385.02 158.096C385.02 158.096 384.24 172.853 386.19 178.835C388.141 184.818 390.092 207.152 390.092 207.152H401.016C401.016 207.152 406.088 187.61 399.845 178.835C399.845 178.835 397.895 167.269 403.357 161.686L385.02 158.096Z" fill="#FFB8B8"/>
<path d="M382.484 117.217C382.484 117.217 357.125 133.569 357.125 138.753L377.412 155.903L384.435 147.926L383.654 159.891L405.503 164.278C405.503 164.278 413.306 133.968 412.915 132.771C412.525 131.575 411.355 114.026 411.355 114.026L382.484 117.217Z" fill="#2F2E41"/>
<path d="M364.537 179.035L353.223 181.428L355.233 189.876C356.223 194.034 356.335 198.36 355.564 202.566C355.564 202.566 367.268 205.756 367.268 204.161C367.268 202.566 364.537 196.184 365.317 191.797C366.098 187.41 364.537 179.035 364.537 179.035Z" fill="#2F55FF"/>
<path d="M370.389 208.947C369.999 207.351 366.758 200.118 366.623 201.342C366.488 202.566 360.246 204.56 357.905 202.167C357.905 202.167 354.784 199.375 353.613 202.167C352.443 204.959 350.102 209.744 350.102 209.744C350.102 209.744 339.568 214.929 341.128 217.721C341.444 218.286 342.319 218.524 343.512 218.545C343.484 218.618 343.47 218.697 343.469 218.776V219.059C343.469 219.233 343.537 219.4 343.657 219.523C343.778 219.646 343.941 219.715 344.111 219.715H344.388C344.558 219.715 344.721 219.646 344.842 219.523C344.962 219.4 345.03 219.233 345.03 219.059V218.776C345.029 218.674 345.005 218.574 344.96 218.484C345.279 218.455 345.61 218.417 345.95 218.371C345.86 218.486 345.811 218.629 345.81 218.776V219.059C345.81 219.233 345.878 219.4 345.998 219.523C346.119 219.646 346.282 219.715 346.452 219.715H346.729C346.899 219.715 347.062 219.646 347.183 219.523C347.303 219.4 347.371 219.233 347.371 219.059V218.776C347.37 218.659 347.34 218.544 347.281 218.444C347.223 218.344 347.139 218.261 347.039 218.205C347.937 218.051 348.874 217.857 349.806 217.641C349.745 217.742 349.712 217.859 349.712 217.978V218.261C349.712 218.435 349.779 218.602 349.9 218.725C350.02 218.848 350.183 218.917 350.354 218.917H350.63C350.8 218.917 350.964 218.848 351.084 218.725C351.205 218.602 351.272 218.435 351.272 218.261V217.978C351.272 217.852 351.236 217.727 351.168 217.621C351.1 217.515 351.004 217.431 350.891 217.379C351.59 217.205 352.275 217.024 352.927 216.844C352.866 216.945 352.833 217.062 352.833 217.181V217.463C352.833 217.637 352.9 217.804 353.021 217.928C353.141 218.051 353.305 218.12 353.475 218.12H353.751C353.922 218.12 354.085 218.051 354.205 217.928C354.326 217.804 354.393 217.637 354.393 217.463V217.181C354.393 217.041 354.349 216.905 354.268 216.793C354.187 216.681 354.072 216.598 353.942 216.557C356.233 215.897 357.905 215.328 357.905 215.328C357.905 215.328 359.846 214.606 362.196 213.63V213.874C362.196 214.048 362.264 214.215 362.384 214.338C362.505 214.461 362.668 214.53 362.838 214.53H363.115C363.285 214.53 363.448 214.461 363.569 214.338C363.689 214.215 363.757 214.048 363.757 213.874V213.591C363.757 213.492 363.734 213.394 363.691 213.304C363.648 213.215 363.586 213.137 363.509 213.076C363.98 212.874 364.456 212.665 364.927 212.453V212.678C364.927 212.852 364.995 213.019 365.115 213.142C365.236 213.265 365.399 213.334 365.569 213.334H365.846C366.016 213.334 366.179 213.265 366.3 213.142C366.42 213.019 366.488 212.852 366.488 212.678V212.395C366.488 212.289 366.463 212.185 366.415 212.092C366.367 211.998 366.298 211.918 366.213 211.858C366.722 211.615 367.213 211.372 367.665 211.135C367.663 211.156 367.658 211.177 367.658 211.198V211.481C367.658 211.655 367.726 211.822 367.846 211.945C367.967 212.068 368.13 212.137 368.3 212.137H368.577C368.747 212.137 368.91 212.068 369.031 211.945C369.151 211.822 369.219 211.655 369.219 211.481V211.198C369.219 211.047 369.168 210.9 369.074 210.783C368.981 210.666 368.85 210.586 368.705 210.555C369.796 209.908 370.484 209.333 370.389 208.947Z" fill="#2F2E41"/>
<path d="M401.796 205.357L389.436 204.56C389.436 204.56 390.185 217.721 388.687 222.108C387.189 226.495 387.938 228.09 387.938 228.09L398.8 228.888L401.796 205.357Z" fill="#2F55FF"/>
<path d="M401.948 234.445C401.892 232.802 400.197 225.037 399.815 226.205C399.434 227.373 392.922 227.993 391.121 225.153C391.121 225.153 388.638 221.758 386.923 224.239C385.209 226.72 381.944 230.901 381.944 230.901C381.944 230.901 370.584 233.727 371.541 236.79C371.734 237.41 372.541 237.829 373.704 238.104C373.662 238.17 373.631 238.244 373.615 238.321L373.557 238.597C373.522 238.768 373.554 238.945 373.646 239.091C373.739 239.237 373.885 239.34 374.051 239.376L374.322 239.435C374.488 239.471 374.662 239.439 374.805 239.344C374.948 239.249 375.048 239.1 375.083 238.93L375.141 238.654C375.161 238.554 375.158 238.451 375.132 238.352C375.45 238.393 375.782 238.426 376.124 238.454C376.012 238.547 375.935 238.676 375.904 238.82L375.847 239.096C375.811 239.267 375.843 239.444 375.936 239.59C376.029 239.736 376.174 239.839 376.341 239.875L376.611 239.934C376.778 239.97 376.951 239.937 377.094 239.843C377.237 239.748 377.337 239.599 377.373 239.429L377.431 239.152C377.454 239.038 377.447 238.919 377.411 238.809C377.374 238.698 377.309 238.599 377.222 238.523C378.132 238.564 379.088 238.574 380.044 238.561C379.963 238.647 379.907 238.755 379.883 238.871L379.825 239.148C379.789 239.318 379.822 239.496 379.914 239.642C380.007 239.788 380.153 239.89 380.319 239.927L380.589 239.985C380.756 240.022 380.93 239.989 381.073 239.894C381.216 239.799 381.316 239.651 381.351 239.48L381.409 239.204C381.435 239.08 381.425 238.951 381.38 238.832C381.336 238.714 381.258 238.611 381.158 238.537C381.877 238.515 382.584 238.484 383.258 238.447C383.178 238.533 383.123 238.64 383.098 238.756L383.04 239.033C383.005 239.203 383.037 239.381 383.129 239.527C383.222 239.673 383.368 239.775 383.534 239.812L383.805 239.871C383.971 239.907 384.145 239.874 384.288 239.779C384.431 239.685 384.531 239.536 384.566 239.366L384.624 239.089C384.652 238.952 384.637 238.81 384.58 238.683C384.524 238.556 384.429 238.451 384.31 238.383C386.685 238.226 388.436 238.025 388.436 238.025C388.436 238.025 390.482 237.733 392.98 237.28L392.93 237.518C392.895 237.688 392.927 237.866 393.019 238.012C393.112 238.158 393.258 238.261 393.424 238.297L393.694 238.356C393.861 238.392 394.035 238.359 394.178 238.265C394.321 238.17 394.421 238.021 394.456 237.851L394.514 237.574C394.534 237.477 394.532 237.376 394.508 237.28C394.484 237.183 394.439 237.094 394.376 237.018C394.879 236.92 395.387 236.818 395.891 236.711L395.845 236.93C395.81 237.1 395.842 237.278 395.934 237.424C396.027 237.57 396.173 237.673 396.339 237.709L396.609 237.768C396.776 237.804 396.95 237.771 397.093 237.676C397.236 237.582 397.336 237.433 397.371 237.263L397.429 236.986C397.45 236.883 397.447 236.776 397.42 236.674C397.392 236.573 397.34 236.479 397.27 236.402C397.817 236.273 398.346 236.141 398.837 236.005C398.831 236.025 398.822 236.044 398.818 236.066L398.76 236.342C398.725 236.512 398.757 236.69 398.849 236.836C398.942 236.982 399.088 237.084 399.254 237.121L399.525 237.18C399.691 237.216 399.865 237.183 400.008 237.088C400.151 236.994 400.251 236.845 400.286 236.675L400.344 236.398C400.375 236.25 400.355 236.096 400.287 235.961C400.219 235.827 400.108 235.72 399.973 235.66C401.172 235.259 401.962 234.844 401.948 234.445Z" fill="#2F2E41"/>
<path d="M382.484 65.3694C388.733 65.3694 393.798 60.1912 393.798 53.8035C393.798 47.4158 388.733 42.2375 382.484 42.2375C376.235 42.2375 371.17 47.4158 371.17 53.8035C371.17 60.1912 376.235 65.3694 382.484 65.3694Z" fill="#FFB8B8"/>
<path d="M392.628 52.607C392.628 52.607 398.87 60.5835 401.991 60.1847L388.336 70.953C388.336 70.953 386.776 64.173 384.825 63.3753C382.874 62.5777 392.628 52.607 392.628 52.607Z" fill="#FFB8B8"/>
<path d="M417.012 111.833C417.012 111.833 417.011 67.8237 409.789 64.0327C402.571 60.2438 397.797 58.0814 397.797 58.0814C397.69 59.5254 397.289 60.9306 396.618 62.2061C395.948 63.4816 395.023 64.5991 393.903 65.4864C391.51 67.3751 389.126 68.9412 387.794 68.9462L387.751 68.7595L387.588 68.2853L383.654 74.5425C383.654 74.5425 380.143 75.3401 378.972 77.7331C378.339 79.0277 381.325 92.0601 379.558 103.856C378.058 113.864 371.739 122.898 371.56 123.997C371.257 125.854 378.938 120.989 382.396 118.715C382.447 118.773 382.484 118.812 382.484 118.812C382.484 118.812 380.533 119.61 384.435 118.413C386.645 117.735 389.732 117.698 391.992 117.792C391.99 118.485 392.006 119.036 392.042 119.41C392.433 123.399 411.94 128.982 414.671 127.786C417.402 126.589 417.012 111.833 417.012 111.833Z" fill="#2F2E41"/>
<path d="M403.357 126.988C403.357 126.988 391.652 137.756 399.455 139.75C407.258 141.745 410.379 128.583 410.379 128.583L403.357 126.988Z" fill="#FFB8B8"/>
<path d="M389.702 154.906C389.702 154.906 395.164 149.721 398.285 152.513C401.406 155.305 403.357 157.299 403.357 157.299C403.357 157.299 394.383 151.715 389.702 154.906Z" fill="#2F55FF"/>
<path d="M391.12 216.943C391.12 216.943 394.199 214.02 395.958 215.594C397.717 217.167 398.817 218.291 398.817 218.291C398.817 218.291 393.759 215.144 391.12 216.943Z" fill="#2F2E41"/>
<path d="M356.63 189.761C356.63 189.761 358.743 186.049 360.875 187.031C363.006 188.013 364.377 188.761 364.377 188.761C364.377 188.761 358.643 187.255 356.63 189.761Z" fill="#2F2E41"/>
<path d="M414.064 69.5048C410.196 61.5578 398.429 65.8921 400.341 74.5502C400.369 74.6793 400.399 74.8097 400.43 74.9413C402.446 83.1372 405.739 90.9478 410.184 98.0732L405.892 117.616L401.211 127.586L410.964 129.979L423.059 100.067C423.059 100.067 419.723 81.1338 414.064 69.5048Z" fill="#2F2E41"/>
<path opacity="0.2" d="M408.428 98.6713L401.016 127.387L407.258 113.827L408.428 98.6713Z" fill="black"/>
<path d="M389.589 40.3216C389.589 40.3216 383.335 33.5909 377.04 37.8296C370.745 42.0684 367.759 46.186 368.376 49.053C368.993 51.92 370.82 55.9078 370.82 55.9078C370.82 55.9078 369.685 49.9683 374.897 49.5287C380.11 49.0892 387.311 45.5629 387.311 45.5629L392.183 56.1971C392.183 56.1971 392.871 53.7328 394.78 54.4397C396.69 55.1465 395.21 41.11 389.589 40.3216Z" fill="#2F2E41"/>
<path d="M349.516 192.395C349.516 193.406 349.434 194.414 349.271 195.411V195.415C348.823 198.095 347.785 200.636 346.236 202.846C344.686 205.057 342.666 206.878 340.328 208.174C337.989 209.469 335.393 210.205 332.736 210.325C330.079 210.445 327.429 209.947 324.988 208.867H324.984C324.262 208.548 323.562 208.179 322.889 207.762C320.804 206.475 319.003 204.76 317.601 202.724C316.199 200.689 315.225 198.377 314.743 195.937C314.517 194.771 314.403 193.584 314.403 192.395C314.403 191.853 314.427 191.315 314.474 190.784V190.78C314.878 186.2 316.987 181.954 320.366 178.918C323.744 175.881 328.133 174.286 332.628 174.462C337.123 174.637 341.381 176.57 344.523 179.861C347.664 183.152 349.451 187.55 349.513 192.148V192.152C349.516 192.236 349.516 192.312 349.516 192.395Z" fill="#2F55FF"/>
<path d="M336.282 186.401H328.419L324.487 179.441L327.154 174.716L327.309 174.673C330.685 173.751 334.251 173.853 337.571 174.967L337.713 175.015L340.213 179.441L336.282 186.401ZM328.869 185.603H335.831L339.312 179.441L337.186 175.678C334.101 174.677 330.803 174.582 327.667 175.402L325.388 179.441L328.869 185.603Z" fill="white"/>
<path d="M335.892 200.759H328.028L324.097 193.798L328.028 186.837H335.892L339.823 193.798L335.892 200.759ZM328.479 199.961H335.441L338.922 193.798L335.441 187.635H328.479L324.998 193.798L328.479 199.961Z" fill="white"/>
<path d="M331.96 210.741C329.508 210.746 327.081 210.232 324.833 209.233L324.432 209.055L328.418 201.991H336.282L340.101 208.753L339.721 208.939C337.301 210.132 334.647 210.748 331.96 210.741ZM325.547 208.674C327.692 209.556 329.99 209.987 332.301 209.94C334.613 209.894 336.892 209.37 339.002 208.402L335.831 202.789H328.869L325.547 208.674Z" fill="white"/>
<path d="M349.156 193.58H341.293L337.362 186.62L341.293 179.657H344.874L344.989 179.781C348.094 183.12 349.849 187.536 349.903 192.143V192.259L349.156 193.58ZM341.744 192.782H348.706L349.121 192.048C349.046 187.738 347.413 183.608 344.537 180.454H341.744L338.263 186.62L341.744 192.782Z" fill="white"/>
<path d="M341.185 208.142L337.362 201.377L341.293 194.413H349.156L349.661 195.303L349.655 195.481C349.229 198.021 348.285 200.441 346.885 202.584C345.485 204.727 343.66 206.545 341.528 207.92L341.185 208.142ZM338.263 201.377L341.452 207.02C343.384 205.707 345.037 204.009 346.31 202.027C347.584 200.045 348.452 197.82 348.863 195.486L348.706 195.211H341.744L338.263 201.377Z" fill="white"/>
<path d="M323.028 208.314L322.688 208.104C320.557 206.787 318.717 205.033 317.283 202.952C315.85 200.872 314.855 198.509 314.36 196.015L314.332 195.868L315.154 194.413H323.017L326.949 201.377L323.028 208.314ZM315.155 196.005C315.629 198.295 316.545 200.465 317.85 202.389C319.154 204.312 320.821 205.95 322.753 207.207L326.048 201.377L322.566 195.211H315.604L315.155 196.005Z" fill="white"/>
<path d="M323.017 192.782H315.154L314.083 190.891V190.784C314.469 186.264 316.483 182.052 319.736 178.966L319.849 178.859H323.017L326.948 185.823L323.017 192.782ZM315.604 191.985H322.566L326.047 185.823L322.566 179.657H320.156C317.147 182.561 315.269 186.482 314.873 190.694L315.604 191.985Z" fill="white"/>
<g clip-path="url(#clip2_101_266)">
<path d="M277.993 166.483L281.124 228.808L288.95 227.831L293.237 163.403L277.993 166.483Z" fill="#FFB6B6"/>
<path d="M289.977 225.038C289.977 225.038 294.33 236.883 288.638 237.58C282.946 238.277 266.538 241.412 266.538 236.883C266.538 232.354 274.909 230.612 274.909 230.612C274.909 230.612 278.927 223.993 280.602 224.69C282.276 225.386 283.615 229.219 286.629 228.174C289.643 227.128 289.977 225.038 289.977 225.038Z" fill="#2F2E41"/>
<path d="M278.425 84.1155H268.714V97.0058H278.425V84.1155Z" fill="#FFB6B6"/>
<path d="M273.319 90.7348C279.468 90.7348 284.452 85.5485 284.452 79.1509C284.452 72.7534 279.468 67.5671 273.319 67.5671C267.17 67.5671 262.185 72.7534 262.185 79.1509C262.185 85.5485 267.17 90.7348 273.319 90.7348Z" fill="#FFB6B6"/>
<path d="M285.624 126.444L286.964 114.948L293.326 115.296L294.665 128.883L299.936 154.045L299.949 154.041L299.943 154.043L301.475 160.914C302.41 162.121 303.053 163.544 303.352 165.062C304.149 168.853 302.916 172.352 300.598 172.88C298.28 173.407 295.756 170.763 294.96 166.974C294.621 165.463 294.635 163.891 295.001 162.388L293.572 157.187L285.624 126.444Z" fill="#FFB6B6"/>
<path d="M268.045 93.1735H279.764L291.149 99.4445L287.131 124.528L291.819 140.206C291.819 140.206 266.705 148.219 259.004 144.735L262.352 124.528L260.008 97.7025C260.008 97.7025 268.045 93.1735 268.045 93.1735Z" fill="#2F55FF"/>
<path d="M288.973 99.6187C288.973 99.6187 292.991 98.2251 293.661 100.664C294.33 103.103 296.005 117.735 296.005 117.735L285.959 118.083C285.959 118.083 288.973 99.6187 288.973 99.6187Z" fill="#2F55FF"/>
<path d="M234.122 145.461C233.716 145.461 233.321 145.428 232.94 145.363C231.391 145.096 230.277 144.314 229.804 143.159C229.33 142.004 229.559 140.625 230.447 139.278C231.319 137.955 232.729 136.814 234.416 136.065C235.783 135.437 237.294 135.151 238.785 135.236L252.651 127.727L253.657 116.917L261.33 113.651L262.397 128.356C262.576 130.823 261.22 133.115 259.023 134.061L241.522 141.899C240.547 143.081 239.301 144.018 237.917 144.608C236.652 145.169 235.341 145.461 234.122 145.461Z" fill="#FFB6B6"/>
<path d="M262.855 97.5284C262.855 97.5284 256.158 95.0897 254.148 102.754C252.139 110.419 252.809 117.386 252.809 117.386L264.194 116.341C264.194 116.341 262.855 97.5284 262.855 97.5284Z" fill="#2F55FF"/>
<path d="M226.162 126.27C226.162 129.74 228.867 132.555 232.202 132.555C233.994 132.555 235.601 131.743 236.706 130.458C236.706 130.458 236.709 130.454 236.713 130.454C237.433 129.615 237.938 128.57 238.139 127.413C238.166 127.295 238.183 127.173 238.196 127.047C238.226 126.807 238.24 126.563 238.243 126.312V126.27C238.243 122.8 235.541 119.985 232.202 119.985C229.982 119.985 228.04 121.233 226.992 123.093C226.824 123.382 226.684 123.689 226.57 124.009C226.306 124.709 226.162 125.472 226.162 126.27Z" fill="#1363DF"/>
<path d="M226.57 124.009C226.895 123.908 227.256 123.751 227.652 123.532C227.789 123.459 227.896 123.389 227.993 123.326C228.194 123.201 228.301 123.135 228.502 123.107C229.001 123.041 229.433 123.323 229.617 123.441C230.183 123.814 230.438 124.337 230.682 124.845C230.816 125.124 231.06 125.713 231.168 126.511C231.231 126.974 231.211 127.222 231.191 127.444C231.171 127.695 231.154 127.932 231.248 128.322C231.509 129.378 232.229 130.057 232.634 130.367C233.307 130.883 234.014 131.141 234.737 131.141C234.831 131.141 234.921 131.137 235.012 131.13C235.38 131.099 236.07 130.963 236.706 130.458C236.706 130.458 236.709 130.454 236.713 130.454C237.433 129.615 237.938 128.57 238.139 127.413C238.139 127.385 238.136 127.361 238.133 127.336C238.119 127.267 238.099 127.121 238.133 127.068C238.139 127.068 238.152 127.061 238.196 127.047C238.226 126.807 238.24 126.563 238.243 126.312C237.838 126.41 237.701 126.521 237.614 126.629C237.389 126.922 237.446 127.288 237.466 127.423C237.567 128.103 237.054 129.238 236.398 129.824C235.849 130.308 235.206 130.412 234.955 130.434C233.967 130.521 233.264 129.984 233.033 129.807C232.698 129.552 232.105 128.995 231.898 128.152C231.831 127.873 231.841 127.726 231.861 127.504C231.881 127.256 231.904 126.953 231.831 126.413C231.71 125.518 231.432 124.852 231.282 124.532C231.02 123.995 230.699 123.326 229.972 122.853C229.748 122.706 229.155 122.323 228.419 122.417C228.077 122.463 227.876 122.588 227.645 122.731C227.558 122.786 227.461 122.849 227.34 122.915C227.216 122.981 227.099 123.044 226.992 123.093C226.824 123.382 226.684 123.689 226.57 124.009Z" fill="#F2F2F2"/>
<path d="M299.288 174.206L295.047 173.129L303.362 144.435L302.059 138.494L311.178 140.864L306.759 145.958L299.288 174.206Z" fill="#06283D"/>
<path d="M321.86 128.737C324.706 119.685 321.883 110.601 315.555 108.448C309.228 106.295 301.791 111.888 298.945 120.94C296.1 129.992 298.923 139.076 305.25 141.229C311.578 143.383 319.015 137.79 321.86 128.737ZM320.587 128.304C318.058 136.351 311.447 141.322 305.823 139.408C300.198 137.494 297.689 129.42 300.219 121.373C302.748 113.326 309.358 108.355 314.983 110.269C320.607 112.183 323.117 120.258 320.587 128.304Z" fill="#06283D"/>
<path d="M284.104 79.158L286.036 84.4544L290.715 93.1879C295.579 102.267 297.7 112.66 296.801 123.012L284.38 122.377L282.942 118.142C279.317 107.464 277.985 96.1492 278.434 84.834C278.648 79.4197 276.377 75.3081 271.393 72.6187L284.104 79.158Z" fill="#2F2E41"/>
<path d="M285.457 83.0703L280.099 77.8445C280.099 77.8445 273.068 75.4058 270.054 73.3155C268.147 71.9929 265.302 73.4597 263.469 74.7156C262.293 75.5218 260.789 75.5953 259.552 74.8934C258.664 74.3897 258.275 73.2781 258.644 72.2987C260.011 68.6633 263.703 66.5887 267.375 67.3929L270.018 65.4291C272.743 63.4038 276.287 63.0052 279.365 64.3778L281.098 65.1505C282.848 65.931 284.335 67.236 285.37 68.8993C286.715 71.0623 287.203 73.6829 286.733 76.2123L285.457 83.0703Z" fill="#2F55FF"/>
<path d="M255.515 167.385L252.429 229.712L260.309 229.584L270.983 165.964L255.515 167.385Z" fill="#FFB6B6"/>
<path d="M290.751 137.567C290.751 137.567 297.448 148.367 296.778 163.696C296.778 163.696 278.027 175.889 254.587 168.573C254.587 168.573 256.931 146.973 259.945 143.489L290.751 137.567Z" fill="black"/>
<path d="M261.85 225.038C261.85 225.038 266.203 236.883 260.511 237.58C254.818 238.277 238.41 241.412 238.41 236.883C238.41 232.354 246.782 230.612 246.782 230.612C246.782 230.612 250.8 223.993 252.474 224.69C254.148 225.386 255.488 229.219 258.501 228.174C261.515 227.128 261.85 225.038 261.85 225.038Z" fill="#2F2E41"/>
</g>
</g>
<g clip-path="url(#clip3_101_266)">
<path d="M51.9482 50.2503L51.0743 55.3606L60.4683 56.9159L58.2836 49.806L51.9482 50.2503Z" fill="#A0616A"/>
<path d="M27.9892 53.6298C26.0974 54.4919 25.6429 57.6447 26.9778 60.6686C27.4933 61.884 28.2907 62.9571 29.2978 63.797L31.205 68.9739C32.4568 75.1462 35.3034 81.6451 39.227 81.1407C44.7782 80.4275 46.5281 73.5664 46.5281 73.5664L39.0566 70.5936L35.7207 64.0547L34.5847 61.3863C34.6393 60.062 34.3815 58.7445 33.831 57.5447C32.4983 54.5185 29.8833 52.7677 27.9892 53.6298Z" fill="#A0616A"/>
<path d="M91.5817 152.94L96.7615 149.045L96.72 148.961L67.8587 90.4747L67.8041 90.4658L44.564 86.4532L39.7228 97.418L27.065 115.519C26.1933 116.766 25.7367 118.235 25.7477 119.765L25.953 152.009L33.8068 152.238L33.8177 152.136L36.5573 126.067C36.7561 124.167 37.726 122.409 39.216 121.245L54.6657 109.174L91.5839 152.942L91.5817 152.94Z" fill="#090814"/>
<path d="M95.9685 149.456C95.9685 149.456 98.5901 149.9 99.4639 151.456C100.338 153.011 102.959 156.344 102.959 156.344C102.959 156.344 104.926 160.121 100.338 159.677C95.75 159.232 94.0023 157.232 94.0023 157.232L92.0362 151.678L95.9685 149.456Z" fill="#2F2E41"/>
<path d="M29.774 149.456C29.774 149.456 27.1524 149.9 26.2785 151.456C25.4047 153.011 22.7831 156.344 22.7831 156.344C22.7831 156.344 20.8169 160.121 25.4047 159.677C29.9924 159.232 31.7401 157.232 31.7401 157.232L33.7063 151.678L29.774 149.456Z" fill="#2F2E41"/>
<path d="M64.8374 56.6937L49.3264 53.5831L40.5879 56.4715L42.991 89.5771L67.7866 90.5769L64.8374 56.6937Z" fill="#2F55FF"/>
<path d="M42.1433 55.7316L38.7659 60.9219L37.9816 73.7175L48.0156 74.4929L47.7447 57.9135L42.1433 55.7316Z" fill="#2F55FF"/>
<path d="M32.8587 68.1851L36.9178 66.5454L42.0801 76.2704L37.3656 78.6611L32.8587 68.1851Z" fill="#A0616A"/>
<path d="M30.0273 59.9087C30.3091 59.9087 30.591 59.8599 30.8619 59.7621C31.5129 59.5266 32.0394 59.02 32.3103 58.3734L35.3906 51.0147C36.5506 48.2418 37.8833 45.5111 39.3514 42.896L39.9936 41.7495C40.4371 41.0563 50.9168 24.6546 51.4149 23.3726C51.7907 22.4061 50.6678 20.4264 50.6197 20.342L50.6066 20.3242C50.5826 20.2954 48.068 17.5092 45.0423 20.0976C42.0712 22.6372 37.0728 39.4699 36.8609 40.1854L36.7254 40.532C35.4933 43.7003 33.9335 46.7509 32.0918 49.5971L27.9519 55.9961C27.5674 56.5915 27.4473 57.3292 27.622 58.0179C27.7968 58.7067 28.2534 59.2911 28.876 59.6221C29.2343 59.8132 29.6297 59.9087 30.0273 59.9087Z" fill="#3F3D56"/>
<path d="M57.6499 62.2506L52.7716 62.5283L43.4017 52.4744L39.7403 48.0485C39.4192 46.7643 38.8009 45.5778 37.938 44.5869C35.8079 42.0762 32.8106 41.1585 31.2399 42.5361C29.6691 43.9136 30.1213 47.0642 32.2514 49.5749C33.0881 50.5903 34.1542 51.3857 35.3557 51.8967L36.258 53.1076L46.6 67.8918C48.4657 70.5603 51.7645 71.7668 54.8755 70.918L61.2043 69.1916L57.6499 62.2483V62.2506Z" fill="#A0616A"/>
<path d="M60.3873 72.1578L67.9134 67.2408C70.3056 65.6789 71.2253 62.6172 70.1002 59.9621C69.4164 58.349 68.075 57.1403 66.4191 56.6471C64.7653 56.1516 62.9914 56.4293 61.5583 57.4114L54.1677 62.4705L60.3873 72.1578Z" fill="#2F55FF"/>
<path d="M56.7499 52.13C52.4908 52.13 49.0381 48.6185 49.0381 44.2869C49.0381 39.9552 52.4908 36.4438 56.7499 36.4438C61.009 36.4438 64.4617 39.9552 64.4617 44.2869C64.4617 48.6185 61.009 52.13 56.7499 52.13Z" fill="#A0616A"/>
<path d="M51.6772 51.0569L52.3435 49.9282C52.3435 49.9282 49.427 47.9285 51.8366 46.7687C54.2463 45.6089 54.6264 42.7716 54.6264 42.7716C54.6264 42.7716 61.6653 40.7097 61.2852 39.1611C60.9051 37.6124 61.9821 36.5171 60.2082 35.8727C58.4321 35.2284 50.5084 35.8727 49.6192 37.7413C48.7323 39.6121 47.8431 44.769 48.2866 45.48C48.7301 46.191 51.6772 51.0591 51.6772 51.0591V51.0569Z" fill="#2F2E41"/>
<path d="M53.6761 42.1895L60.8417 37.3547C60.8417 37.3547 70.098 34.4552 66.6114 39.9987L63.6621 40.6119C63.6621 40.6119 55.6423 42.5138 53.6761 42.1895Z" fill="#2F55FF"/>
<path d="M55.8324 41.0941L48.35 46.8331C48.35 46.8331 43.9763 38.9011 50.8252 34.9684C57.674 31.0358 62.0149 37.1947 62.0149 37.1947L60.2082 39.1611L55.8324 41.0941Z" fill="#2F55FF"/>
<path d="M109.594 28.1429C109.594 30.5381 107.685 32.4822 105.327 32.4822C104.174 32.4822 103.127 32.0156 102.361 31.258C101.559 30.4692 101.063 29.3649 101.063 28.1429C101.063 25.7478 102.972 23.8036 105.327 23.8036C106.066 23.8036 106.758 23.9947 107.363 24.328C107.466 24.3858 107.567 24.448 107.665 24.5146C108.587 25.1279 109.258 26.0944 109.496 27.2253C109.526 27.3542 109.548 27.4853 109.561 27.6186C109.583 27.7897 109.594 27.9652 109.594 28.1429Z" fill="#2F55FF"/>
<path d="M109.561 27.6186C109.494 27.6941 109.424 27.7763 109.347 27.8696C109.089 28.1851 108.987 28.3562 108.843 28.594C108.718 28.8006 108.561 29.0583 108.253 29.4938C107.617 30.3914 107.298 30.8425 106.802 31.2513C106.313 31.6534 105.703 32.1556 104.788 32.22C104.724 32.2245 104.661 32.2245 104.6 32.2245C103.492 32.2245 102.684 31.5468 102.376 31.2424C101.57 30.4425 101.402 29.4716 101.367 29.0917C101.338 28.785 101.299 27.7097 101.992 26.7432C102.603 25.89 103.449 25.5856 104.268 25.2878C104.803 25.0945 105.209 25.0257 105.57 24.9635C106.064 24.879 106.487 24.8057 107.136 24.4591C107.226 24.4102 107.3 24.368 107.364 24.328C107.466 24.3858 107.567 24.448 107.665 24.5146C107.65 24.5235 107.632 24.5346 107.615 24.5457C107.53 24.5968 107.425 24.6591 107.281 24.7368C106.588 25.1079 106.118 25.1901 105.622 25.2745C105.258 25.3367 104.88 25.4012 104.371 25.5856C103.562 25.8789 102.798 26.1544 102.243 26.9298C101.614 27.8074 101.651 28.7828 101.675 29.0605C101.708 29.4072 101.86 30.2892 102.592 31.0158C102.887 31.3068 103.687 31.9801 104.766 31.9045C105.585 31.8467 106.151 31.3802 106.608 31.0069C107.071 30.6247 107.381 30.1848 107.999 29.3116C108.303 28.8828 108.456 28.6295 108.578 28.4273C108.722 28.1896 108.836 28.0007 109.107 27.6697C109.253 27.4897 109.382 27.3453 109.496 27.2253C109.526 27.3542 109.548 27.4853 109.561 27.6186Z" fill="#E6E6E6"/>
</g>
</g>
<defs>
<clipPath id="clip0_101_266">
<rect width="490" height="240" fill="white"/>
</clipPath>
<clipPath id="clip1_101_266">
<rect width="334.345" height="203.571" fill="white" transform="translate(225.45 36.4286)"/>
</clipPath>
<clipPath id="clip2_101_266">
<rect width="245" height="175.714" fill="white" transform="translate(136.667 63.5714)"/>
</clipPath>
<clipPath id="clip3_101_266">
<rect width="159.843" height="140.714" fill="white" transform="matrix(-1 0 0 1 148.843 19)"/>
</clipPath>
</defs>
</svg>
